<svg xmlns="http://www.w3.org/2000/svg" width="16.421" height="14.2" viewBox="0 0 16.421 14.2">
  <g id="certificate" transform="translate(0 -17.081)">
    <g id="Group_2069" data-name="Group 2069" transform="translate(0 17.081)">
      <path id="Path_1661" data-name="Path 1661" d="M15.283,17.081H1.137A1.139,1.139,0,0,0,0,18.218v9.6a1.139,1.139,0,0,0,1.137,1.137H9.386l-.249,1.519a.657.657,0,0,0,.99.713l1.78-.937a.374.374,0,0,1,.236,0l1.78.937a.794.794,0,0,0,.369.1.624.624,0,0,0,.369-.117.69.69,0,0,0,.253-.693l-.249-1.519h.62a1.139,1.139,0,0,0,1.137-1.137v-9.6A1.139,1.139,0,0,0,15.283,17.081ZM12.025,27a1.982,1.982,0,1,1,1.982-1.982A1.985,1.985,0,0,1,12.025,27Zm.572,2.382a1.316,1.316,0,0,0-1.144,0l-1.258.662.4-2.44a2.95,2.95,0,0,0,2.861,0l.156.951v0l.243,1.484Zm2.849-1.57a.165.165,0,0,1-.162.162H14.5l-.178-1.086,0-.013a2.957,2.957,0,1,0-4.6,0l0,.013-.178,1.087H1.137a.165.165,0,0,1-.162-.162v-9.6a.165.165,0,0,1,.162-.162H15.283a.165.165,0,0,1,.162.162Z" transform="translate(0 -17.081)" fill="#000002"/>
      <path id="Path_1662" data-name="Path 1662" d="M42.656,60.243H31.606a.487.487,0,1,0,0,.975H42.656a.487.487,0,1,0,0-.975Z" transform="translate(-29.096 -57.438)" fill="#000002"/>
      <path id="Path_1663" data-name="Path 1663" d="M36.286,100.911h-4.68a.487.487,0,1,0,0,.975h4.68a.487.487,0,0,0,0-.975Z" transform="translate(-29.096 -95.463)" fill="#000002"/>
    </g>
  </g>
</svg>
