<svg xmlns="http://www.w3.org/2000/svg" xmlns:xlink="http://www.w3.org/1999/xlink" width="152" height="152" viewBox="0 0 152 152">
  <defs>
    <filter id="Rectangle_34" x="0" y="0" width="152" height="152" filterUnits="userSpaceOnUse">
      <feOffset dy="16" input="SourceAlpha"/>
      <feGaussianBlur stdDeviation="20" result="blur"/>
      <feFlood flood-color="#d8d8d8" flood-opacity="0.2"/>
      <feComposite operator="in" in2="blur"/>
      <feComposite in="SourceGraphic"/>
    </filter>
  </defs>
  <g id="المزيد" transform="translate(-270 -446)">
    <g transform="matrix(1, 0, 0, 1, 270, 446)" filter="url(#Rectangle_34)">
      <g id="Rectangle_34-2" data-name="Rectangle 34" transform="translate(60 44)" fill="#fff" stroke="#f2f3f8" stroke-width="1">
        <rect width="32" height="32" rx="16" stroke="none"/>
        <rect x="0.5" y="0.5" width="31" height="31" rx="15.5" fill="none"/>
      </g>
    </g>
    <path id="Vector" d="M4.637,2.318A2.318,2.318,0,1,1,2.318,0,2.318,2.318,0,0,1,4.637,2.318Z" transform="translate(348.021 503.682)" fill="#292d32"/>
    <path id="Vector-2" data-name="Vector" d="M4.637,2.318A2.318,2.318,0,1,1,2.318,0,2.318,2.318,0,0,1,4.637,2.318Z" transform="translate(339.343 503.682)" fill="#292d32"/>
  </g>
</svg>
