<svg id="password" xmlns="http://www.w3.org/2000/svg" width="14.261" height="12.116" viewBox="0 0 14.261 12.116">
  <g id="Group_1991" data-name="Group 1991">
    <path id="Path_1035" data-name="Path 1035" d="M13.957,48.371a.557.557,0,0,1-.749-.241h0c-.854-1.665-3.122-4.051-6.078-4.051A7.294,7.294,0,0,0,1.053,48.13a.557.557,0,0,1-.991-.508A8.393,8.393,0,0,1,7.13,42.965c3.572,0,6.13,2.823,7.069,4.657A.557.557,0,0,1,13.957,48.371ZM.216,42.388l1.241,1.119A.557.557,0,0,0,2.2,42.68L.963,41.561a.557.557,0,1,0-.746.827ZM12.8,43.508l1.241-1.119a.557.557,0,1,0-.746-.827L12.057,42.68a.557.557,0,0,0,.746.827ZM7.13,41.287a.557.557,0,0,0,.557-.557V39.057a.557.557,0,1,0-1.114,0V40.73a.557.557,0,0,0,.557.557Zm2.737,6.589A2.737,2.737,0,1,1,7.13,45.135a2.742,2.742,0,0,1,2.737,2.741Zm-1.114,0A1.622,1.622,0,1,0,7.13,49.5,1.626,1.626,0,0,0,8.753,47.875Z" transform="translate(0 -38.5)" fill="#6e6e6e"/>
  </g>
</svg>
